<svg version="1.0" xmlns="http://www.w3.org/2000/svg"
 width="1280.000000pt" height="730.000000pt" viewBox="0 0 1280.000000 730.000000"
 preserveAspectRatio="xMidYMid meet">
<metadata>
Created by potrace 1.15, written by Peter Selinger 2001-2017
</metadata>
<g transform="translate(0.000000,730.000000) scale(0.100000,-0.100000)"
fill="#000000" stroke="none">
<path d="M5915 7289 c-1368 -62 -2656 -372 -3675 -885 -1162 -585 -1862 -1374
-1985 -2239 -8 -55 -15 -121 -15 -147 l0 -48 6191 0 6190 0 -6 73 c-17 188
-59 379 -123 549 -437 1160 -1947 2111 -3987 2512 -801 157 -1730 224 -2590
185z"/>
<path d="M1038 3769 c-373 -29 -678 -169 -769 -355 -27 -55 -31 -71 -27 -126
5 -79 28 -126 92 -195 103 -108 302 -197 548 -245 l113 -22 5450 -4 c3805 -2
5482 0 5556 8 212 21 377 88 491 201 94 92 123 156 123 269 0 71 -4 94 -26
140 -70 146 -241 262 -469 317 -72 17 -317 18 -5525 19 -2997 1 -5498 -2
-5557 -7z"/>
<path d="M850 2586 c-536 -185 -850 -393 -850 -566 0 -19 9 -53 19 -75 25 -57
131 -149 223 -195 182 -91 355 -93 773 -10 452 89 700 117 945 107 301 -13
470 -66 925 -292 359 -179 448 -210 574 -203 97 6 156 32 280 126 248 189 557
286 1066 336 398 40 1281 47 1430 12 193 -45 318 -103 550 -255 94 -62 202
-128 241 -147 324 -156 644 -73 1352 349 334 200 429 236 613 237 162 0 366
-56 628 -171 233 -103 381 -187 684 -387 203 -134 254 -156 352 -150 90 6 137
30 290 149 196 153 316 199 521 199 185 0 338 -41 644 -170 193 -83 325 -127
398 -136 117 -13 203 28 260 124 23 41 27 57 26 127 0 100 -24 164 -104 283
-134 199 -398 448 -725 681 l-99 71 -5446 -1 -5445 0 -125 -43z"/>
<path d="M8909 1790 c-111 -14 -229 -71 -589 -285 -405 -241 -575 -311 -850
-351 -246 -35 -404 14 -777 242 -185 114 -348 194 -453 224 -72 21 -93 22
-540 20 -759 -2 -999 -19 -1302 -96 -183 -46 -379 -130 -509 -219 -35 -25 -91
-63 -123 -85 -123 -84 -290 -109 -475 -71 -165 35 -315 99 -555 239 -205 119
-319 164 -519 204 -98 20 -141 23 -342 22 -268 -1 -378 -13 -860 -101 -270
-49 -327 -57 -440 -57 -92 0 -153 5 -208 18 -43 10 -81 16 -83 13 -8 -8 35
-165 73 -267 149 -402 447 -757 819 -976 234 -137 505 -227 773 -254 145 -14
8824 -14 8959 1 655 71 1216 459 1511 1047 23 45 41 84 41 86 0 2 -19 7 -42
11 -78 13 -199 56 -407 145 -241 102 -336 134 -452 150 -100 14 -181 7 -246
-22 -27 -11 -130 -74 -230 -139 -202 -133 -280 -172 -376 -190 -146 -27 -236
14 -787 357 -293 182 -506 279 -695 318 -93 19 -235 26 -316 16z"/>
</g>
</svg>
